<svg version="1.1" xmlns="http://www.w3.org/2000/svg" viewBox="0 -755 2555 1200"><defs></defs><g><g><g transform="matrix(0.5,0,0,-0.5,0,0)"><path d="M563 1057L563 252Q563 167 589 123Q616 80 678 80Q717 80 757 105Q797 130 835 176Q873 223 905 288Q938 354 963 434Q988 515 1002 609Q1016 703 1016 805Q1016 908 993 1000Q971 1092 923 1160Q876 1229 802 1269Q729 1309 627 1309Q542 1309 477 1290Q412 1271 364 1237Q317 1204 284 1159Q252 1114 232 1062Q213 1011 205 955Q197 900 197 846Q197 772 212 714Q228 656 247 615Q267 575 284 553Q302 531 305 528Q322 533 329 524Q336 515 336 500Q336 480 327 458Q319 437 305 419Q291 402 273 390Q256 379 238 379Q230 379 222 381Q215 383 207 389Q205 390 192 403Q179 417 160 442Q141 467 119 504Q98 542 79 591Q61 640 49 701Q37 762 37 834Q37 973 79 1089Q122 1206 200 1289Q278 1373 388 1419Q498 1466 633 1466Q776 1466 879 1411Q983 1357 1049 1267Q1116 1177 1148 1061Q1180 945 1180 821Q1180 676 1157 553Q1135 430 1096 330Q1058 230 1007 153Q956 77 899 25Q842 -26 782 -52Q722 -78 666 -78Q594 -78 543 -56Q493 -33 462 10Q431 54 417 117Q403 181 403 262L403 1047Q403 1076 399 1088Q395 1101 395 1112Q395 1128 411 1137Q427 1147 449 1147Q500 1147 531 1120Q563 1094 563 1057ZM1442 -608Q1442 -530 1462 -470Q1483 -410 1518 -360Q1553 -310 1599 -267Q1645 -223 1696 -178L1696 37Q1665 6 1623 -16Q1582 -37 1528 -37Q1468 -37 1422 -13Q1377 11 1346 52Q1315 94 1299 150Q1284 207 1284 272Q1284 400 1325 502Q1366 604 1434 675Q1502 747 1589 785Q1677 823 1771 823Q1813 823 1839 800Q1865 778 1865 737Q1865 711 1859 700Q1854 690 1839 690Q1825 690 1810 692Q1795 694 1779 694Q1721 694 1661 668Q1601 643 1552 590Q1504 538 1473 457Q1442 377 1442 266Q1442 186 1473 142Q1504 98 1558 98Q1589 98 1612 116Q1635 135 1652 163Q1669 191 1679 224Q1690 258 1696 289L1696 520Q1696 549 1691 562Q1687 575 1687 586Q1687 601 1703 611Q1719 621 1741 621Q1792 621 1821 594Q1851 568 1851 530L1851 -27Q1907 35 1953 114Q2000 193 2031 299Q2041 331 2053 345Q2065 360 2081 360Q2093 360 2105 352Q2118 345 2128 333Q2139 321 2145 306Q2152 291 2152 276Q2152 274 2152 268Q2152 262 2150 256Q2124 167 2089 98Q2055 30 2016 -24Q1977 -78 1935 -121Q1893 -163 1851 -199L1851 -553Q1851 -634 1832 -690Q1814 -745 1784 -780Q1754 -814 1715 -829Q1677 -844 1638 -844Q1595 -844 1559 -826Q1523 -807 1497 -775Q1471 -743 1456 -700Q1442 -657 1442 -608ZM1638 -715Q1663 -715 1675 -695Q1687 -675 1691 -649Q1696 -622 1696 -595Q1696 -568 1696 -553L1696 -334Q1646 -384 1615 -447Q1585 -510 1585 -602Q1585 -650 1599 -683Q1613 -715 1638 -715ZM2511 596Q2511 539 2491 479Q2472 419 2433 365Q2395 312 2338 269Q2282 227 2208 205Q2218 179 2234 155Q2251 132 2274 115Q2297 98 2327 88Q2358 78 2398 78Q2458 78 2501 100Q2544 123 2573 160Q2603 197 2621 243Q2639 289 2648 336Q2655 370 2676 381Q2698 393 2720 387Q2743 381 2759 361Q2776 342 2773 315Q2769 284 2759 244Q2750 204 2731 163Q2712 122 2682 82Q2653 43 2610 12Q2567 -19 2509 -38Q2451 -57 2376 -57Q2306 -57 2240 -30Q2175 -2 2124 49Q2074 101 2043 176Q2013 252 2013 348Q2013 445 2040 528Q2067 612 2111 673Q2155 734 2211 768Q2267 803 2326 803Q2369 803 2403 788Q2438 773 2462 745Q2486 718 2498 680Q2511 642 2511 596ZM2181 354Q2181 345 2182 336Q2183 327 2183 317Q2221 335 2252 363Q2283 391 2305 427Q2327 463 2339 505Q2351 548 2351 594Q2351 628 2339 647Q2328 666 2308 666Q2283 666 2263 649Q2244 632 2229 604Q2215 577 2205 542Q2196 508 2190 473Q2184 438 2182 406Q2180 375 2181 354ZM2648 33L2648 682Q2648 711 2643 724Q2639 737 2639 748Q2639 763 2655 772Q2671 782 2693 782Q2744 782 2773 755Q2803 729 2803 692L2803 600Q2824 643 2848 680Q2873 717 2901 744Q2930 772 2962 787Q2995 803 3033 803Q3084 803 3117 784Q3150 765 3169 735Q3188 705 3195 668Q3203 631 3203 596L3203 172Q3203 165 3204 149Q3205 134 3210 118Q3215 102 3225 90Q3236 78 3256 78Q3287 78 3309 100Q3332 122 3348 155Q3365 188 3375 226Q3386 265 3393 299Q3399 331 3413 345Q3427 360 3442 360Q3454 360 3467 352Q3480 345 3490 333Q3501 321 3507 306Q3514 291 3514 276Q3514 274 3514 271Q3514 268 3512 262Q3499 211 3476 155Q3454 99 3418 52Q3383 5 3334 -26Q3285 -57 3219 -57Q3178 -57 3146 -42Q3115 -26 3092 0Q3070 26 3058 61Q3047 96 3047 135L3047 551Q3047 575 3046 596Q3045 617 3040 633Q3036 649 3027 658Q3019 668 3004 668Q2982 668 2950 638Q2918 608 2887 560Q2856 512 2832 451Q2809 391 2803 330L2803 31Q2803 16 2802 0Q2802 -15 2796 -28Q2791 -40 2779 -49Q2768 -57 2746 -57Q2731 -57 2713 -54Q2696 -50 2681 -41Q2667 -31 2657 -14Q2648 4 2648 33ZM3495 985Q3470 985 3447 995Q3425 1005 3408 1022Q3392 1039 3382 1061Q3372 1084 3372 1110Q3372 1137 3382 1160Q3392 1183 3408 1199Q3425 1216 3447 1225Q3470 1235 3495 1235Q3522 1235 3545 1225Q3568 1216 3584 1199Q3601 1183 3610 1160Q3620 1137 3620 1110Q3620 1084 3610 1061Q3601 1039 3584 1022Q3568 1005 3545 995Q3522 985 3495 985ZM3542 692L3542 172Q3542 165 3543 149Q3544 134 3549 118Q3554 102 3565 90Q3576 78 3596 78Q3626 78 3648 100Q3671 122 3687 155Q3704 188 3715 226Q3726 265 3733 299Q3739 330 3751 344Q3764 358 3778 359Q3793 361 3807 352Q3822 343 3833 328Q3845 314 3850 296Q3856 278 3852 262Q3838 211 3815 155Q3793 99 3758 52Q3723 5 3674 -26Q3625 -57 3559 -57Q3518 -57 3486 -42Q3454 -26 3432 0Q3410 26 3398 61Q3387 96 3387 135L3387 682Q3387 711 3382 724Q3378 737 3378 748Q3378 763 3394 772Q3410 782 3432 782Q3483 782 3512 755Q3542 729 3542 692ZM4068 -57Q4000 -57 3936 -32Q3872 -7 3822 42Q3773 91 3743 163Q3714 235 3714 330Q3714 418 3739 503Q3764 588 3808 654Q3852 721 3913 762Q3975 803 4048 803Q4101 803 4138 781Q4175 760 4198 729Q4221 699 4231 664Q4242 629 4242 602Q4242 582 4231 566Q4221 550 4206 539Q4191 528 4173 522Q4155 517 4141 518Q4127 519 4118 528Q4110 537 4113 555Q4109 568 4105 587Q4102 606 4093 623Q4085 641 4070 653Q4055 666 4029 666Q4001 666 3974 639Q3948 613 3927 567Q3907 521 3894 460Q3882 399 3882 330Q3882 269 3897 222Q3913 175 3941 143Q3969 111 4007 94Q4046 78 4091 78Q4151 78 4195 100Q4240 123 4271 160Q4302 197 4321 243Q4340 289 4349 336Q4356 370 4377 381Q4399 393 4421 387Q4444 381 4460 361Q4477 342 4474 315Q4470 284 4459 244Q4449 204 4429 163Q4409 122 4378 82Q4348 43 4304 12Q4260 -19 4201 -38Q4143 -57 4068 -57ZM4465 281Q4457 249 4435 241Q4413 234 4391 243Q4370 252 4355 274Q4341 296 4347 322Q4362 390 4390 472Q4419 555 4447 637Q4432 660 4423 683Q4414 707 4414 733Q4414 759 4433 787Q4453 816 4480 840Q4508 864 4537 879Q4567 895 4588 895Q4625 895 4643 870Q4662 845 4662 803Q4662 780 4654 757Q4647 735 4638 715Q4629 696 4621 682Q4614 668 4613 664Q4649 600 4688 551Q4727 502 4759 454Q4792 406 4813 352Q4834 298 4834 225Q4834 207 4831 188Q4829 169 4824 152Q4860 159 4887 174Q4915 189 4935 208Q4956 228 4969 251Q4983 274 4992 299Q5003 328 5014 341Q5025 354 5039 354Q5052 354 5065 345Q5079 337 5089 324Q5100 311 5106 297Q5113 283 5113 272Q5113 257 5105 236Q5097 215 5083 193Q5070 171 5053 150Q5036 130 5018 115Q4970 76 4905 49Q4840 23 4744 16Q4707 -16 4656 -37Q4606 -57 4543 -57Q4511 -57 4477 -49Q4444 -41 4413 -29Q4383 -16 4358 -1Q4333 14 4318 29Q4280 65 4269 101Q4258 138 4263 167Q4269 196 4285 214Q4301 233 4318 233Q4328 233 4349 224Q4371 216 4399 202Q4427 189 4460 174Q4493 159 4526 145Q4559 132 4590 123Q4622 115 4648 115Q4665 135 4679 168Q4693 201 4693 240Q4693 288 4680 329Q4667 370 4646 405Q4625 440 4598 470Q4572 501 4545 528Q4521 469 4503 411Q4485 354 4465 281Z" fill="#fff"></path></g></g></g></svg>